<svg class="svg-icon" style="width: 1em; height: 1em;vertical-align: middle;fill: currentColor;overflow: hidden;" viewBox="0 0 1024 1024" version="1.1" xmlns="http://www.w3.org/2000/svg"><path d="M397.527527 403.254564a10.581131 10.581131 0 0 0 15.786364 2.687949l0.639988-0.51199c16.639681-13.866401 31.615394-28.15946 45.695124-43.391169 136.914709-148.605152 56.958908-331.044322 56.318921-332.750955a21.332924 21.332924 0 0 1 6.399877-25.343515 21.034264 21.034264 0 0 1 26.239497 1.407973c463.991107 431.522396 341.113462 760.220096 332.153634 782.363672-37.119289 134.013431-184.956455 230.992906-360.270428 235.942144-5.887887 0.341327-10.325135 0.341327-15.487703 0.341327-207.014699 0-383.011326-127.528222-383.011326-290.426433v-2.559951c0-226.001002 204.582745-448.930062 213.713237-458.401881a18.730308 18.730308 0 0 1 22.399571-4.479914c7.679853 3.242605 12.671757 10.879791 12.415762 19.242298-1.834632 44.201819 7.125197 82.558418 26.922151 115.197792v0.639987l0.085331 0.042666z" fill="" /></svg>